# xmcd
#
# Track frame offsets: 
#        183
#        14433
#        40183
#        56583
#        75058
#        103533
#        117295
#        133033
#        149958
#        163783
#
# Disc length: 2356 seconds
#
# Revision: 0
# Processed by: cddbd v1.5.2PL0 Copyright (c) Steve Scherf et al.
# Submitted via: ExactAudioCopy v1.0b3
#
DISCID=8309320a
DTITLE=Gipsy Kings - Gipsy Collection
DYEAR=1991
DGENRE=Acoustic
TTITLE0=All My Loving
TTITLE1=Hotel California
TTITLE2=Volare
TTITLE3=Quiero Saber
TTITLE4=Amor De Mis Amores
TTITLE5=Bem, Bem Maria
TTITLE6=Bamboleo
TTITLE7=Soledad
TTITLE8=Prisionero
TTITLE9=Sera El Amor
EXTD=
EXTT0=
EXTT1=
EXTT2=
EXTT3=
EXTT4=
EXTT5=
EXTT6=
EXTT7=
EXTT8=
EXTT9=
PLAYORDER=
